# Blender 3.5.0
# www.blender.org
o py_wall
v -1.000000 -1.400000 -0.050000
v -1.000000 -1.400000 0.050000
v 1.000000 -1.400000 -0.050000
v 1.000000 -1.400000 0.050000
v -1.000000 1.400000 -0.050000
v -1.000000 1.400000 0.050000
v 1.000000 1.400000 -0.050000
v 1.000000 1.400000 0.050000
v -0.950000 -1.330000 -0.000000
v -1.050000 -1.470000 -0.000000
v 1.050000 -1.470000 -0.000000
v 0.950000 -1.330000 -0.000000
v 1.050000 1.470000 0.000000
v 0.950000 1.330000 0.000000
v -1.050000 1.470000 0.000000
v -0.950000 1.330000 0.000000
vn -0.8137 0.5812 -0.0000
vn -0.1905 -0.1361 -0.9722
vn 0.8137 0.5812 -0.0000
vn 0.1905 -0.1361 0.9722
vn -0.8137 -0.5812 -0.0000
vn 0.1905 -0.1361 -0.9722
vn 0.8137 -0.5812 -0.0000
vn -0.1905 -0.1361 0.9722
vn 0.1905 0.1361 0.9722
vn 0.1905 0.1361 -0.9722
vn -0.1905 0.1361 0.9722
vn -0.1905 0.1361 -0.9722
s 1
f 12//1 1//2 9//3
f 9//3 4//4 12//1
f 10//5 3//6 11//7
f 11//7 2//8 10//5
f 14//5 3//6 12//1
f 12//1 8//9 14//5
f 11//7 7//10 13//3
f 13//3 4//4 11//7
f 16//7 7//10 14//5
f 14//5 6//11 16//7
f 13//3 5//12 15//1
f 15//1 8//9 13//3
f 9//3 5//12 16//7
f 16//7 2//8 9//3
f 15//1 1//2 10//5
f 10//5 6//11 15//1
f 12//1 3//6 1//2
f 9//3 2//8 4//4
f 10//5 1//2 3//6
f 11//7 4//4 2//8
f 14//5 7//10 3//6
f 12//1 4//4 8//9
f 11//7 3//6 7//10
f 13//3 8//9 4//4
f 16//7 5//12 7//10
f 14//5 8//9 6//11
f 13//3 7//10 5//12
f 15//1 6//11 8//9
f 9//3 1//2 5//12
f 16//7 6//11 2//8
f 15//1 5//12 1//2
f 10//5 2//8 6//11
